<svg height="511pt" viewBox="0 1 511 511.99993" width="511pt" xmlns="http://www.w3.org/2000/svg"><path d="m455.234375 332.6875c-64.207031 64.503906-163.8125 75.605469-240.019531 28.199219l-14.101563 14.105469-47.703125 12.296874-14.101562-14.097656-15.300782-15.300781 13.5-46.503906 14.101563-14.101563c-46.804687-75.308594-36.902344-175.214844 28.203125-240.019531 76.207031-76.203125 199.214844-76.503906 275.421875 0 76.203125 76.207031 76.503906 199.214844 0 275.421875zm0 0" fill="#7c8388"/><path d="m455.234375 332.6875c-64.207031 64.503906-163.8125 75.605469-240.019531 28.199219l-14.101563 14.105469-47.703125 12.296874-14.101562-14.097656 315.925781-315.925781c76.203125 76.207031 76.503906 199.214844 0 275.421875zm0 0" fill="#575f64"/><path d="m434.230469 311.6875c-64.503907 64.5-168.910157 64.5-233.417969 0-64.503906-64.507812-64.503906-168.914062 0-233.417969 64.507812-64.503906 168.914062-64.503906 233.417969 0 64.503906 64.503907 64.503906 168.910157 0 233.417969zm0 0" fill="#e0f4ff"/><path d="m434.230469 311.6875c-64.503907 64.5-168.910157 64.5-233.417969 0l233.417969-233.417969c64.503906 64.503907 64.503906 168.910157 0 233.417969zm0 0" fill="#bbdcff"/><path d="m392.527344 164.976562c0-12.601562-5.097656-23.703124-13.5-31.503906-4.5-4.800781-10.199219-8.402344-16.5-10.800781v-17.699219c0-8.402344-6.601563-15.003906-15.003906-15.003906-8.398438 0-15 6.601562-15 15.003906v15h-30v-15c0-8.402344-6.601563-15.003906-15.003907-15.003906-8.402343 0-15 6.601562-15 15.003906v15h-15c-8.402343 0-15.003906 6.597656-15.003906 15 0 8.398438 6.601563 15 15.003906 15h15v90.007813h-15c-8.402343 0-15.003906 6.597656-15.003906 15 0 4.203125 1.800781 7.800781 4.203125 10.800781 2.996094 2.402344 6.597656 4.203125 10.800781 4.203125h15v15c0 8.398437 6.597657 15 15 15 8.402344 0 15.003907-6.601563 15.003907-15v-15h30v15c0 8.398437 6.601562 15 15 15 8.402343 0 15.003906-6.601563 15.003906-15v-17.703125c17.402344-6.300781 30-22.800781 30-42.300781 0-11.703125-4.5-21.902344-11.699219-30.003907 7.199219-8.101562 11.699219-18.300781 11.699219-30zm-45.003906 75.003907h-45v-30.003907h45c8.402343 0 15.003906 6.601563 15.003906 15.003907 0 8.398437-6.601563 15-15.003906 15zm0-60.003907h-45v-30.003906h45c4.203124 0 7.800781 1.800782 10.800781 4.203125 2.402343 2.996094 4.203125 6.597657 4.203125 10.800781 0 8.398438-6.601563 15-15.003906 15zm0 0" fill="#ffda2d"/><path d="m380.828125 194.976562c7.199219 8.101563 11.699219 18.300782 11.699219 30.003907 0 19.5-12.597656 36-30 42.300781v17.703125c0 8.398437-6.601563 15-15.003906 15-8.398438 0-15-6.601563-15-15v-15h-30v15c0 8.398437-6.601563 15-15.003907 15-8.402343 0-15-6.601563-15-15v-15h-15c-4.203125 0-7.800781-1.800781-10.800781-4.203125l55.804688-55.804688v30.003907h45c8.402343 0 15.003906-6.601563 15.003906-15 0-8.402344-6.601563-15.003907-15.003906-15.003907h-45l30-30h15c8.402343 0 15.003906-6.601562 15.003906-15 0-4.203124-1.800782-7.800781-4.203125-10.800781l20.703125-20.703125c8.402344 7.796875 13.5 18.898438 13.5 31.503906 0 11.699219-4.5 21.898438-11.699219 30zm0 0" fill="#fdbf00"/><path d="m201.113281 374.992188-21.300781 21.296874-21 21.003907-51.304688-8.699219-3.601562-3.601562-8.699219-51.304688 42.300781-42.300781zm0 0" fill="#fdbf00"/><path d="m201.113281 374.992188-21.300781 21.296874-21 21.003907-51.304688-8.699219-1.800781-1.800781 63.605469-63.605469zm0 0" fill="#ff9100"/><path d="m158.8125 417.292969-81.429688 81.429687c-17.703124 17.703125-46.203124 17.703125-63.605468 0-17.703125-17.402344-17.703125-45.902344 0-63.605468l81.429687-81.429688zm0 0" fill="#7c8388"/><path d="m127.011719 385.488281 31.800781 31.804688-81.429688 81.429687c-17.703124 17.703125-46.203124 17.703125-63.605468 0zm0 0" fill="#575f64"/></svg>